<svg xmlns="http://www.w3.org/2000/svg" width="128" height="128" viewBox="0 0 1280 1280">
  <defs>
    <style>
      .cls-1 {
        fill: #0095d9;
      }

      .cls-1, .cls-2, .cls-3 {
        fill-rule: evenodd;
      }

      .cls-2, .cls-3 {
        fill: #fff;
      }

      .cls-3 {
        mix-blend-mode: screen;
      }
    </style>
  </defs>
  <path id="椭圆_1" data-name="椭圆 1" class="cls-1" d="M620.592,342.926c47.692,0,86.354,39.248,86.354,87.662s-38.662,87.661-86.354,87.661S534.238,479,534.238,430.588,572.9,342.926,620.592,342.926Z"/>
  <path id="椭圆_1-2" data-name="椭圆 1" class="cls-1" d="M299.236,99.051c28.668,0,51.909,23.592,51.909,52.694s-23.241,52.694-51.909,52.694-51.91-23.592-51.91-52.694S270.567,99.051,299.236,99.051Z"/>
  <path id="椭圆_1-3" data-name="椭圆 1" class="cls-1" d="M190.056,851.822c89.545,0,162.135,73.678,162.135,164.568s-72.59,164.56-162.135,164.56S27.92,1107.27,27.92,1016.39,100.511,851.822,190.056,851.822Z"/>
  <path id="椭圆_1-4" data-name="椭圆 1" class="cls-2" d="M187.616,890.812c69.428,0,125.71,57.125,125.71,127.588S257.044,1146,187.616,1146s-125.71-57.13-125.71-127.6S118.189,890.812,187.616,890.812Z"/>
  <path id="椭圆_1-5" data-name="椭圆 1" class="cls-1" d="M1121.66,645.3c72.03,0,130.42,59.277,130.42,132.4s-58.39,132.4-130.42,132.4S991.243,850.824,991.243,777.7,1049.63,645.3,1121.66,645.3Z"/>
  <path id="椭圆_1-6" data-name="椭圆 1" class="cls-1" d="M886.958,99.051c29.741,0,53.852,23.2,53.852,51.816s-24.111,51.816-53.852,51.816-53.853-23.2-53.853-51.816S857.216,99.051,886.958,99.051Z"/>
  <path id="矩形_1" data-name="矩形 1" class="cls-1" d="M866.751,150.915l20.207,20.369L633.2,423.023l-20.206-20.369Z"/>
  <path id="矩形_2" data-name="矩形 2" class="cls-1" d="M298.731,142.088H834.3v16.736H298.731V142.088Z"/>
  <path id="矩形_3" data-name="矩形 3" class="cls-1" d="M1022.88,762.705l19.6,76.429L351.145,1016.39l-19.6-76.433Z"/>
  <path id="矩形_4" data-name="矩形 4" class="cls-1" d="M621.078,450.485l27.316-42.128,462.416,299.83-27.32,42.129Z"/>
  <path id="椭圆_1-7" data-name="椭圆 1" class="cls-2" d="M619.144,364.938c35.841,0,64.895,29.493,64.895,65.876s-29.054,65.876-64.895,65.876S554.25,467.2,554.25,430.814,583.3,364.938,619.144,364.938Z"/>
  <path id="椭圆_1-8" data-name="椭圆 1" class="cls-2" d="M885.666,111.063c22.96,0,41.573,17.9,41.573,39.992s-18.613,39.993-41.573,39.993-41.572-17.906-41.572-39.993S862.706,111.063,885.666,111.063Z"/>
  <path id="椭圆_1-9" data-name="椭圆 1" class="cls-3" d="M298.466,110.062c22.728,0,41.153,18.7,41.153,41.761s-18.425,41.76-41.153,41.76-41.154-18.7-41.154-41.76S275.737,110.062,298.466,110.062Z"/>
  <path id="椭圆_1-10" data-name="椭圆 1" class="cls-2" d="M1121.96,680.312c52.86,0,95.71,43.5,95.71,97.154s-42.85,97.153-95.71,97.153-95.71-43.5-95.71-97.153S1069.1,680.312,1121.96,680.312Z"/>
</svg>
